<?xml version="1.0" encoding="utf-8"?>
<!-- Generator: $$$/GeneralStr/196=Adobe Illustrator 27.6.0, SVG Export Plug-In . SVG Version: 6.00 Build 0)  -->
<svg version="1.1" id="Calque_1" xmlns="http://www.w3.org/2000/svg" xmlns:xlink="http://www.w3.org/1999/xlink" x="0px" y="0px"
	 viewBox="0 0 1942.7 1360.6" style="enable-background:new 0 0 1942.7 1360.6;" xml:space="preserve">
<style type="text/css">
	.st0{fill:none;stroke:#211615;stroke-miterlimit:10;}
	.st1{stroke:#211615;stroke-miterlimit:10;}
	.st2{fill:none;stroke:#0000FF;stroke-miterlimit:10;}
	.st3{fill:none;stroke:#0000FF;}
</style>
<path class="st0" d="M404.2,38.4v-6.4c-95,4.3-156.1,6.9-192.7,8.4c-70.8,2.9-108.1,4.2-140.1,29.1C42.5,91.9,31.7,122.8,27.2,143
	h14.3c4.4-14.3,25.3-50.8,53.1-66.6c30.8-17.6,91.3-8.4,159.4-9.2c48.1-0.6,58.8,0.4,150.2-2.7v-9.1h8.5v-17H404.2z"/>
<g>
	<path class="st0" d="M329.4,185c8.5,3.8,11.3,33.2,26.4,58.1c15.1,24.9,27.2,31.4,79.6,30.2c54.2-1.3,63.4-67.5,66-73.9
		c1.8-4.3,7.2-10.2,10.6-13.7c3.7-3.8,2.8-6.5,2.2-22.2c-0.2-4.4-3.4-8.2-7.7-9.1c-60.4-12.9-100.6-16.6-155.6-1.4
		c-15,4.2-21.4,4.4-34.3,4.3c-12.9,0.1-19.3-0.1-34.3-4.3c-55.5-15.4-96-11.3-155.6,1.4c-4.3,0.9-7.5,4.7-7.7,9.1
		c-0.7,15.4-1.6,18.4,2.2,22.2c3.4,3.5,8.9,9.4,10.6,13.7c2.6,6.4,11.8,72.6,66,73.9c52.4,1.3,64.5-5.3,79.6-30.2
		c15.1-24.9,18-54.3,26.4-58.1C309.2,182.5,323.9,182.5,329.4,185z M484,207.1c-5.3,36.7-21.9,50-31.4,53.8
		c-9.6,3.8-50.5,9.3-72.7-7.5c-22.1-16.8-29.2-51.8-29.4-71.2c-0.3-19.4,29.2-24.1,29.2-24.1c33.7-6.8,67.6-4.5,83,0.5
		C478,163.6,489.3,170.4,484,207.1z M170.5,158.6c15.3-5,49.3-7.3,83-0.5c0,0,29.4,4.8,29.2,24.1c-0.3,19.4-7.3,54.3-29.4,71.2
		c-22.1,16.8-63.1,11.3-72.7,7.5c-9.6-3.8-26.2-17.1-31.4-53.8S155.1,163.6,170.5,158.6z"/>
	<rect x="126.2" y="163.8" class="st0" width="8.5" height="17"/>
	<rect x="499.9" y="163.8" class="st0" width="8.5" height="17"/>
</g>
<path class="st1" d="M954.7,405.1"/>
<path class="st0" d="M422.6,93.9v-6.4c-95,4.3-156.1,6.9-192.7,8.4C159,98.8,121.8,100.1,89.8,125c-28.8,22.4-39.6,53.3-44.2,73.5
	H60c4.4-14.3,25.3-50.8,53.1-66.6c30.8-17.6,91.3-8.4,159.4-9.2c48.1-0.6,58.8,0.4,150.2-2.7v-9.1h8.5v-17H422.6z"/>
<g>
	<path class="st2" d="M373.1,99c1.1,0.4,1.6,4.2,3.7,7.3c2.1,3.1,3.7,3.8,10.3,3.4c6.9-0.5,7.7-9,8-9.8c0.2-0.6,0.9-1.3,1.3-1.8
		c0.5-0.5,0.3-0.9,0.1-2.8c-0.1-0.6-0.5-1-1-1.1c-7.8-1.3-12.9-1.5-19.9,0.8c-1.9,0.6-2.7,0.7-4.4,0.8c-1.6,0.1-2.5,0.1-4.4-0.3
		c-7.2-1.6-12.3-0.9-19.8,1.1c-0.5,0.1-0.9,0.6-0.9,1.2c0,2-0.1,2.4,0.4,2.8c0.5,0.4,1.2,1.1,1.4,1.7c0.4,0.8,2,9.2,8.9,9
		c6.7-0.2,8.2-1.1,10-4.3c1.8-3.3,2-7,3-7.6C370.5,98.8,372.4,98.8,373.1,99z M393,100.9c-0.4,4.7-2.5,6.5-3.7,7.1
		c-1.2,0.5-6.4,1.5-9.3-0.5c-2.9-2-4-6.4-4.2-8.9c-0.2-2.5,3.6-3.3,3.6-3.3c4.3-1.1,8.6-1,10.6-0.4C392,95.4,393.4,96.2,393,100.9z
		 M352.7,96.6c1.9-0.7,6.2-1.2,10.6-0.6c0,0,3.8,0.4,3.9,2.9c0.1,2.5-0.6,7-3.3,9.3c-2.7,2.3-8,1.8-9.2,1.4c-1.2-0.4-3.4-2-4.3-6.7
		C349.4,98.3,350.8,97.4,352.7,96.6z"/>
	<path class="st3" d="M357.7,102c0.6-0.1,2.1-0.2,2.5-0.3l0-0.9c-0.1-1.2-0.9-1.9-2.3-1.8c-1.2,0-2,0.6-2.1,1.5l-1.2,0.1
		c0.1-1.4,1.5-2.5,3.3-2.6c1.4-0.1,3.3,0.4,3.4,2.9l0.3,6.1l-1.1,0.1l-0.1-1.4l-0.1,0c-0.3,0.8-1.2,1.7-2.7,1.7
		c-1.6,0.1-3-0.8-3.1-2.6C354.4,103,355.9,102.3,357.7,102z M357.7,106.4c1.7-0.1,2.6-1.3,2.6-2.8l0-1c-0.5,0.1-1.9,0.2-2.3,0.3
		c-1.6,0.2-2.3,0.8-2.3,1.9C355.7,105.9,356.6,106.5,357.7,106.4z"/>
	<path class="st3" d="M369.7,106.5l1.1-0.1l0.1,1.9l0.1,0c0.3-1.3,1.2-2.1,2.4-2.2l0.6,0l0.1,1.6c-0.1,0-0.4-0.1-0.7-0.1
		c-1.4,0.1-2.4,1.4-2.3,3.2l0.4,7.8l-1.1,0.1L369.7,106.5z"/>
	<path class="st3" d="M386.5,98.8l-1.9,0.1l0.3,5.7c0,1.1,0.7,1.4,1.4,1.4c0.2,0,0.5,0,0.7-0.1l0.1,1.1c-0.2,0-0.5,0.1-0.8,0.1
		c-1.2,0.1-2.4-0.7-2.5-2.2l-0.3-5.9l-1.3,0.1l0-1l1.3-0.1l-0.1-2.2l1.2-0.1l0.1,2.2l1.9-0.1L386.5,98.8z"/>
</g>
<rect x="1097.6" y="12.2" class="st0" width="524.1" height="942.6"/>
<circle class="st0" cx="1168.1" cy="216.3" r="26.4"/>
<circle class="st0" cx="1541.5" cy="216.3" r="26.4"/>
<circle class="st0" cx="1167.8" cy="411.3" r="26.4"/>
<circle class="st0" cx="1541.5" cy="411.3" r="26.4"/>
<circle class="st0" cx="1168.1" cy="606.3" r="26.4"/>
<circle class="st0" cx="1541.5" cy="606.3" r="26.4"/>
<circle class="st0" cx="1173" cy="801.3" r="26.4"/>
<circle class="st0" cx="1541.5" cy="801.3" r="26.4"/>
<path class="st2" d="M1363.2,59.5c4.3,1.7,6.4,16.2,14.5,28.2c8.1,12,14.2,15,40.2,13.1c26.9-1.9,29.8-35,31-38.3
	c0.8-2.2,3.3-5.2,4.9-7c1.8-2,1.2-3.3,0.5-11.1c-0.2-2.2-1.9-4-4-4.3c-30.3-4.9-50.4-5.8-77.2,3c-7.4,2.4-10.5,2.7-16.9,2.9
	c-6.4,0.4-9.6,0.4-17.1-1.3c-27.9-6.3-47.9-3.3-77.2,4.4c-2.1,0.6-3.6,2.5-3.6,4.7c0,7.7-0.4,9.2,1.6,11c1.8,1.7,4.6,4.5,5.6,6.5
	c1.5,3.1,7.6,35.8,34.5,35.1c26.1-0.6,31.9-4.2,38.8-16.9c6.9-12.7,7.6-27.4,11.7-29.5C1353.1,58.8,1360.4,58.4,1363.2,59.5z
	 M1440.5,66.8c-1.7,18.3-9.7,25.4-14.3,27.5c-4.7,2.1-24.9,5.8-36.3-2c-11.4-7.8-15.7-25-16.3-34.6c-0.6-9.6,13.9-12.7,13.9-12.7
	c16.6-4.2,33.5-3.9,41.2-1.7C1436.5,45.3,1442.2,48.4,1440.5,66.8z M1283.7,50.2c7.5-2.9,24.3-4.8,41.2-2.2c0,0,14.7,1.7,15.1,11.3
	c0.3,9.6-2.3,27.1-12.9,36c-10.6,8.9-31.1,7.1-35.9,5.5c-4.8-1.6-13.4-7.9-16.9-26S1276.2,53.1,1283.7,50.2z"/>
<path class="st3" d="M1303.2,71.1c2.4-0.3,8.2-0.9,9.8-1l-0.2-3.3c-0.2-4.7-3.4-7.5-8.8-7.1c-4.6,0.2-7.7,2.4-8.4,5.7l-4.6,0.2
	c0.5-5.6,5.7-9.6,12.9-9.9c5.3-0.3,12.8,1.6,13.3,11.3l1.1,23.7l-4.4,0.2l-0.3-5.4l-0.3,0c-1.3,3.1-4.7,6.5-10.6,6.8
	c-6.4,0.3-11.8-3.3-12-10C1290.4,75,1296.1,72,1303.2,71.1z M1303.3,88.2c6.5-0.3,10.2-5.1,10-10.7l-0.2-3.8
	c-1.8,0.2-7.3,0.9-9.1,1.2c-6.1,0.7-9,3.2-8.8,7.2C1295.4,86.3,1298.9,88.4,1303.3,88.2z"/>
<path class="st3" d="M1350,88.4l4.2-0.2l0.4,7.3l0.3,0c1.2-4.9,4.8-8.3,9.2-8.5l2.3-0.1l0.3,6.1c-0.3-0.1-1.5-0.3-2.5-0.2
	c-5.4,0.3-9.2,5.4-8.8,12.4l1.5,30.2l-4.4,0.2L1350,88.4z"/>
<path class="st3" d="M1415.3,58.6L1408,59l1.1,22c0.1,4.4,2.7,5.6,5.4,5.4c0.8,0,2.1-0.2,2.9-0.3l0.2,4.1c-0.8,0.2-1.8,0.4-3.3,0.4
	c-4.6,0.2-9.4-2.5-9.7-8.4l-1.1-23.1l-5.2,0.2l-0.2-3.7l5.2-0.2l-0.4-8.5l4.5-0.2l0.4,8.5l7.3-0.4L1415.3,58.6z"/>
<rect x="1355.4" y="551.4" class="st0" width="8.5" height="402.9"/>
<path class="st0" d="M853.5,659.3c-1.5-2.4-4.4-3.2-4.4-3.2c-2-1-3.7-1.5-4.2-1.6c-4.7-0.9-9.7,4.8-12.2,7
	c-9.1,7.7-28.7,5.7-39.7-3.7c-0.4-0.3-0.7-0.6-1.1-1c-5.7-5.3-8.8-12.8-8.9-20.6c-0.1-5.3,1-10.6,3.1-15.5
	c48.3-110.2,74.6-144.4,67.4-155.5c-1.5-2.4-4.4-3.2-4.4-3.2c-2-1-3.7-1.5-4.2-1.6c-4.7-0.9-9.7,4.8-12.2,7
	c-9.1,7.7-28.7,5.7-39.7-3.7c-0.4-0.4-0.8-0.7-1.2-1.1c-5.8-5.4-8.8-13.2-8.8-21.1v-7.8h-229V1210h229
	c50.3-115.9,77.9-151.3,70.5-162.6c-1.5-2.4-4.4-3.2-4.4-3.2c-2-1-3.7-1.5-4.2-1.6c-4.7-0.9-9.7,4.8-12.2,7
	c-9.1,7.7-28.7,5.7-39.7-3.7c-0.5-0.4-0.9-0.8-1-0.9c-6.4-6.1-8.3-13.8-8.9-19c0,0,0-0.1,0-0.1c-0.9-7.6,0.1-15.4,2.9-22.5l1.1-2.9
	c8.9-18.7,77.8-138.8,66.4-147.2c-4.4-3.2-4.4-3.2-4.4-3.2c0,0,0,0,0,0c-2-1-3.7-1.5-4.2-1.6c-4.7-0.9-9.7,4.8-12.2,7
	c-9.1,7.7-28.7,5.7-39.7-3.7c-0.4-0.3-0.8-0.7-1.1-1c-5.7-5.4-8.8-12.9-8.9-20.8c-0.1-5.3,1-10.5,3.1-15.3
	C834.4,704.6,860.7,670.4,853.5,659.3z"/>
<rect x="623.2" y="433.9" class="st0" width="8.5" height="373.5"/>
<g>
	<path class="st0" d="M329.4,331.3c8.5,3.8,11.3,33.2,26.4,58.1c15.1,24.9,27.2,31.4,79.6,30.2c54.2-1.3,63.4-67.5,66-73.9
		c1.8-4.3,7.2-10.2,10.6-13.7c3.7-3.8,2.8-6.5,2.2-22.2c-0.2-4.4-3.4-8.2-7.7-9.1c-60.4-12.9-100.6-16.6-155.6-1.4
		c-15,4.2-21.4,4.4-34.3,4.3c-12.9,0.1-19.3-0.1-34.3-4.3c-55.5-15.4-96-11.3-155.6,1.4c-4.3,0.9-7.5,4.7-7.7,9.1
		c-0.7,15.4-1.6,18.4,2.2,22.2c3.4,3.5,8.9,9.4,10.6,13.7c2.6,6.4,11.8,72.6,66,73.9c52.4,1.3,64.5-5.3,79.6-30.2
		c15.1-24.9,18-54.3,26.4-58.1C309.2,328.9,323.9,328.9,329.4,331.3z M484,353.5c-5.3,36.7-21.9,50-31.4,53.8
		c-9.6,3.8-50.5,9.3-72.7-7.5c-22.1-16.8-29.2-51.8-29.4-71.2c-0.3-19.4,29.2-24.1,29.2-24.1c33.7-6.8,67.6-4.5,83,0.5
		C478,310,489.3,316.8,484,353.5z M170.5,304.9c15.3-5,49.3-7.3,83-0.5c0,0,29.4,4.8,29.2,24.1c-0.3,19.4-7.3,54.3-29.4,71.2
		c-22.1,16.8-63.1,11.3-72.7,7.5c-9.6-3.8-26.2-17.1-31.4-53.8S155.1,310,170.5,304.9z"/>
</g>
<path class="st0" d="M415.8,463.1v-6.4c-95,4.3-156.1,6.9-192.7,8.4C152.3,468,115,469.3,83,494.2c-28.8,22.4-39.6,53.3-44.2,73.5
	h14.3c4.4-14.3,25.3-50.8,53.1-66.6c30.8-17.6,91.3-8.4,159.4-9.2c48.1-0.6,58.8,0.4,150.2-2.7v-9.1h8.5v-17H415.8z"/>
<path class="st0" d="M527.5,588.1c-0.2-4.4-3.4-8.2-7.7-9.1c-60.4-12.9-100.6-16.6-155.6-1.4c-15,4.2-21.4,4.4-34.3,4.3
	c-12.9,0.1-19.3-0.1-34.3-4.3c-55.5-15.4-96-11.3-155.6,1.4c-4.3,0.9-7.5,4.7-7.7,9.1c-0.7,15.4-1.6,18.4,2.2,22.2
	c3.4,3.5,8.9,9.4,10.6,13.7c2.6,6.4,11.8,72.6,66,73.9c52.4,1.3,64.5-5.3,79.6-30.2c15.1-24.9,18-54.3,26.4-58.1
	c5.4-2.5,20.2-2.5,25.6,0c8.5,3.8,11.3,33.2,26.4,58.1c15.1,24.9,27.2,31.4,79.6,30.2c54.2-1.3,63.4-67.5,66-73.9
	c1.8-4.3,7.2-10.2,10.6-13.7C529.1,606.5,528.2,603.8,527.5,588.1z"/>
<rect x="137.8" y="588.5" class="st0" width="8.5" height="17"/>
<rect x="511.6" y="588.5" class="st0" width="8.5" height="17"/>
<path class="st0" d="M434.3,518.6v-6.4c-95,4.3-156.1,6.9-192.7,8.4c-70.8,2.9-108.1,4.2-140.1,29.1c-28.8,22.4-39.6,53.3-44.2,73.5
	h14.3c4.4-14.3,25.3-50.8,53.1-66.6c30.8-17.6,91.3-8.4,159.4-9.2c48.1-0.6,58.8,0.4,150.2-2.7v-9.1h8.5v-17H434.3z"/>
<g>
	<path class="st2" d="M384.8,523.8c1.1,0.4,1.6,4.2,3.7,7.3s3.7,3.8,10.3,3.4c6.9-0.5,7.7-9,8-9.8c0.2-0.6,0.9-1.3,1.3-1.8
		c0.5-0.5,0.3-0.9,0.1-2.8c-0.1-0.6-0.5-1-1-1.1c-7.8-1.3-12.9-1.5-19.9,0.8c-1.9,0.6-2.7,0.7-4.4,0.8c-1.6,0.1-2.5,0.1-4.4-0.3
		c-7.2-1.6-12.3-0.9-19.8,1.1c-0.5,0.1-0.9,0.6-0.9,1.2c0,2-0.1,2.4,0.4,2.8c0.5,0.4,1.2,1.1,1.4,1.7c0.4,0.8,2,9.2,8.9,9
		c6.7-0.2,8.2-1.1,10-4.3c1.8-3.3,2-7,3-7.6C382.2,523.6,384.1,523.5,384.8,523.8z M404.6,525.6c-0.4,4.7-2.5,6.5-3.7,7.1
		c-1.2,0.5-6.4,1.5-9.3-0.5c-2.9-2-4-6.4-4.2-8.9c-0.2-2.5,3.6-3.3,3.6-3.3c4.3-1.1,8.6-1,10.6-0.4
		C403.6,520.1,405.1,520.9,404.6,525.6z M364.3,521.4c1.9-0.7,6.2-1.2,10.6-0.6c0,0,3.8,0.4,3.9,2.9c0.1,2.5-0.6,7-3.3,9.3
		c-2.7,2.3-8,1.8-9.2,1.4c-1.2-0.4-3.4-2-4.3-6.7C361,523,362.4,522.1,364.3,521.4z"/>
	<path class="st3" d="M369.3,526.7c0.6-0.1,2.1-0.2,2.5-0.3l0-0.9c-0.1-1.2-0.9-1.9-2.3-1.8c-1.2,0-2,0.6-2.1,1.5l-1.2,0.1
		c0.1-1.4,1.5-2.5,3.3-2.6c1.4-0.1,3.3,0.4,3.4,2.9l0.3,6.1l-1.1,0.1l-0.1-1.4l-0.1,0c-0.3,0.8-1.2,1.7-2.7,1.7
		c-1.6,0.1-3-0.8-3.1-2.6C366.1,527.7,367.5,527,369.3,526.7z M369.4,531.1c1.7-0.1,2.6-1.3,2.6-2.8l0-1c-0.5,0.1-1.9,0.2-2.3,0.3
		c-1.6,0.2-2.3,0.8-2.3,1.9C367.4,530.6,368.2,531.2,369.4,531.1z"/>
	<path class="st3" d="M381.4,531.2l1.1-0.1l0.1,1.9l0.1,0c0.3-1.3,1.2-2.1,2.4-2.2l0.6,0l0.1,1.6c-0.1,0-0.4-0.1-0.7-0.1
		c-1.4,0.1-2.4,1.4-2.3,3.2l0.4,7.8l-1.1,0.1L381.4,531.2z"/>
	<path class="st3" d="M398.2,523.5l-1.9,0.1l0.3,5.7c0,1.1,0.7,1.4,1.4,1.4c0.2,0,0.5,0,0.7-0.1l0.1,1.1c-0.2,0-0.5,0.1-0.8,0.1
		c-1.2,0.1-2.4-0.7-2.5-2.2l-0.3-5.9l-1.3,0.1l0-1l1.3-0.1l-0.1-2.2l1.2-0.1l0.1,2.2l1.9-0.1L398.2,523.5z"/>
</g>
<circle class="st0" cx="226.4" cy="628" r="11.2"/>
<circle class="st0" cx="435.5" cy="628" r="11.2"/>
<path class="st0" d="M416.2,741.7v-6.4c-95,4.3-156.1,6.9-192.7,8.4c-70.8,2.9-108.1,4.2-140.1,29.1c-28.8,22.4-39.6,53.3-44.2,73.5
	h14.3c4.4-14.3,25.3-50.8,53.1-66.6c30.8-17.6,91.3-8.4,159.4-9.2c48.1-0.6,58.8,0.4,150.2-2.7v-9.1h8.5v-17H416.2z"/>
<path class="st0" d="M527.8,866.8c-0.2-4.4-3.4-8.2-7.7-9.1c-60.4-12.9-100.6-16.6-155.6-1.4c-15,4.2-21.4,4.4-34.3,4.3
	c-12.9,0.1-19.3-0.1-34.3-4.3c-55.5-15.4-96-11.3-155.6,1.4c-4.3,0.9-7.5,4.7-7.7,9.1c-0.7,15.4-1.6,18.4,2.2,22.2
	c3.4,3.5,8.9,9.4,10.6,13.7c2.6,6.4,11.8,72.6,66,73.9c52.4,1.3,64.5-5.3,79.6-30.2c15.1-24.9,18-54.3,26.4-58.1
	c5.4-2.5,20.2-2.5,25.6,0c8.5,3.8,11.3,33.2,26.4,58.1c15.1,24.9,27.2,31.4,79.6,30.2c54.2-1.3,63.4-67.5,66-73.9
	c1.8-4.3,7.2-10.2,10.6-13.7C529.4,885.2,528.5,882.5,527.8,866.8z"/>
<rect x="138.2" y="867.2" class="st0" width="8.5" height="17"/>
<rect x="511.9" y="867.2" class="st0" width="8.5" height="17"/>
<path class="st0" d="M434.6,797.3v-6.4c-95,4.3-156.1,6.9-192.7,8.4c-70.8,2.9-108.1,4.2-140.1,29.1c-28.8,22.4-39.6,53.3-44.2,73.5
	h14.3c4.4-14.3,25.3-50.8,53.1-66.6c30.8-17.6,91.3-8.4,159.4-9.2c48.1-0.6,58.8,0.4,150.2-2.7v-9.1h8.5v-17H434.6z"/>
<g>
	<path class="st2" d="M385.1,802.4c1.1,0.4,1.6,4.2,3.7,7.3c2.1,3.1,3.7,3.8,10.3,3.4c6.9-0.5,7.7-9,8-9.8c0.2-0.6,0.9-1.3,1.3-1.8
		c0.5-0.5,0.3-0.9,0.1-2.8c-0.1-0.6-0.5-1-1-1.1c-7.8-1.3-12.9-1.5-19.9,0.8c-1.9,0.6-2.7,0.7-4.4,0.8c-1.6,0.1-2.5,0.1-4.4-0.3
		c-7.2-1.6-12.3-0.9-19.8,1.1c-0.5,0.1-0.9,0.6-0.9,1.2c0,2-0.1,2.4,0.4,2.8c0.5,0.4,1.2,1.1,1.4,1.7c0.4,0.8,2,9.2,8.9,9
		c6.7-0.2,8.2-1.1,10-4.3c1.8-3.3,2-7,3-7.6C382.5,802.2,384.4,802.1,385.1,802.4z M405,804.3c-0.4,4.7-2.5,6.5-3.7,7.1
		c-1.2,0.5-6.4,1.5-9.3-0.5c-2.9-2-4-6.4-4.2-8.9c-0.2-2.5,3.6-3.3,3.6-3.3c4.3-1.1,8.6-1,10.6-0.4
		C403.9,798.8,405.4,799.6,405,804.3z M364.7,800c1.9-0.7,6.2-1.2,10.6-0.6c0,0,3.8,0.4,3.9,2.9c0.1,2.5-0.6,7-3.3,9.3
		c-2.7,2.3-8,1.8-9.2,1.4c-1.2-0.4-3.4-2-4.3-6.7C361.3,801.7,362.7,800.8,364.7,800z"/>
	<path class="st3" d="M369.7,805.4c0.6-0.1,2.1-0.2,2.5-0.3l0-0.9c-0.1-1.2-0.9-1.9-2.3-1.8c-1.2,0-2,0.6-2.1,1.5l-1.2,0.1
		c0.1-1.4,1.5-2.5,3.3-2.6c1.4-0.1,3.3,0.4,3.4,2.9l0.3,6.1l-1.1,0.1l-0.1-1.4l-0.1,0c-0.3,0.8-1.2,1.7-2.7,1.7
		c-1.6,0.1-3-0.8-3.1-2.6C366.4,806.4,367.9,805.6,369.7,805.4z M369.7,809.8c1.7-0.1,2.6-1.3,2.6-2.8l0-1c-0.5,0.1-1.9,0.2-2.3,0.3
		c-1.6,0.2-2.3,0.8-2.3,1.9C367.7,809.3,368.6,809.9,369.7,809.8z"/>
	<path class="st3" d="M381.7,809.8l1.1-0.1l0.1,1.9l0.1,0c0.3-1.3,1.2-2.1,2.4-2.2l0.6,0l0.1,1.6c-0.1,0-0.4-0.1-0.7-0.1
		c-1.4,0.1-2.4,1.4-2.3,3.2l0.4,7.8l-1.1,0.1L381.7,809.8z"/>
	<path class="st3" d="M398.5,802.2l-1.9,0.1l0.3,5.7c0,1.1,0.7,1.4,1.4,1.4c0.2,0,0.5,0,0.7-0.1l0.1,1.1c-0.2,0-0.5,0.1-0.8,0.1
		c-1.2,0.1-2.4-0.7-2.5-2.2l-0.3-5.9l-1.3,0.1l0-1l1.3-0.1l-0.1-2.2l1.2-0.1l0.1,2.2l1.9-0.1L398.5,802.2z"/>
</g>
<circle class="st0" cx="179.9" cy="880.6" r="6.5"/>
<circle class="st0" cx="199.5" cy="880.6" r="6.5"/>
<circle class="st0" cx="219.2" cy="880.6" r="6.5"/>
<circle class="st0" cx="238.8" cy="880.6" r="6.5"/>
<circle class="st0" cx="258.4" cy="880.6" r="6.5"/>
<circle class="st0" cx="278" cy="880.6" r="6.5"/>
<circle class="st0" cx="179.9" cy="898.5" r="6.5"/>
<circle class="st0" cx="199.5" cy="898.5" r="6.5"/>
<circle class="st0" cx="219.2" cy="898.5" r="6.5"/>
<circle class="st0" cx="238.8" cy="898.5" r="6.5"/>
<circle class="st0" cx="258.4" cy="898.5" r="6.5"/>
<circle class="st0" cx="278" cy="898.5" r="6.5"/>
<circle class="st0" cx="180.1" cy="916.5" r="6.5"/>
<circle class="st0" cx="199.7" cy="916.5" r="6.5"/>
<circle class="st0" cx="219.3" cy="916.5" r="6.5"/>
<circle class="st0" cx="238.9" cy="916.5" r="6.5"/>
<circle class="st0" cx="258.6" cy="916.5" r="6.5"/>
<circle class="st0" cx="278.2" cy="916.5" r="6.5"/>
<circle class="st0" cx="180.2" cy="934.5" r="6.5"/>
<circle class="st0" cx="199.8" cy="934.5" r="6.5"/>
<circle class="st0" cx="219.4" cy="934.5" r="6.5"/>
<circle class="st0" cx="239" cy="934.5" r="6.5"/>
<circle class="st0" cx="258.7" cy="934.5" r="6.5"/>
<circle class="st0" cx="278.3" cy="934.5" r="6.5"/>
<circle class="st0" cx="199.5" cy="952.5" r="6.5"/>
<circle class="st0" cx="219.1" cy="952.5" r="6.5"/>
<circle class="st0" cx="238.7" cy="952.5" r="6.5"/>
<circle class="st0" cx="258.3" cy="952.5" r="6.5"/>
<circle class="st0" cx="385.6" cy="880.6" r="6.5"/>
<circle class="st0" cx="405.3" cy="880.6" r="6.5"/>
<circle class="st0" cx="424.9" cy="880.6" r="6.5"/>
<circle class="st0" cx="444.5" cy="880.6" r="6.5"/>
<circle class="st0" cx="464.1" cy="880.6" r="6.5"/>
<circle class="st0" cx="483.7" cy="880.6" r="6.5"/>
<circle class="st0" cx="385.6" cy="898.5" r="6.5"/>
<circle class="st0" cx="405.3" cy="898.5" r="6.5"/>
<circle class="st0" cx="424.9" cy="898.5" r="6.5"/>
<circle class="st0" cx="444.5" cy="898.5" r="6.5"/>
<circle class="st0" cx="464.1" cy="898.5" r="6.5"/>
<circle class="st0" cx="483.7" cy="898.5" r="6.5"/>
<circle class="st0" cx="385.8" cy="916.5" r="6.5"/>
<circle class="st0" cx="405.4" cy="916.5" r="6.5"/>
<circle class="st0" cx="425" cy="916.5" r="6.5"/>
<circle class="st0" cx="444.7" cy="916.5" r="6.5"/>
<circle class="st0" cx="464.3" cy="916.5" r="6.5"/>
<circle class="st0" cx="483.9" cy="916.5" r="6.5"/>
<circle class="st0" cx="385.9" cy="934.5" r="6.5"/>
<circle class="st0" cx="405.5" cy="934.5" r="6.5"/>
<circle class="st0" cx="425.2" cy="934.5" r="6.5"/>
<circle class="st0" cx="444.8" cy="934.5" r="6.5"/>
<circle class="st0" cx="464.4" cy="934.5" r="6.5"/>
<circle class="st0" cx="484" cy="934.5" r="6.5"/>
<circle class="st0" cx="405.2" cy="952.5" r="6.5"/>
<circle class="st0" cx="424.8" cy="952.5" r="6.5"/>
<circle class="st0" cx="444.4" cy="952.5" r="6.5"/>
<circle class="st0" cx="464.1" cy="952.5" r="6.5"/>
<path class="st0" d="M926.2,40.5V34c-95,4.3-156.1,6.9-192.7,8.4c-70.8,2.9-108.1,4.2-140.1,29.1c-28.8,22.4-39.6,53.3-44.2,73.5
	h14.3c4.4-14.3,25.3-50.8,53.1-66.6c30.8-17.6,91.3-8.4,159.4-9.2c48.1-0.6,58.8,0.4,150.2-2.7v-9.1h8.5v-17H926.2z"/>
<g>
	<path class="st0" d="M851.4,187.1c8.5,3.8,11.3,33.2,26.4,58.1c15.1,24.9,27.2,31.4,79.6,30.2c54.2-1.3,63.4-67.5,66-73.9
		c1.8-4.3,7.2-10.2,10.6-13.7c3.7-3.8,2.8-6.5,2.2-22.2c-0.2-4.4-3.4-8.2-7.7-9.1c-60.4-12.9-100.6-16.6-155.6-1.4
		c-15,4.2-21.4,4.4-34.3,4.3c-12.9,0.1-19.3-0.1-34.3-4.3c-55.5-15.4-96-11.3-155.6,1.4c-4.3,0.9-7.5,4.7-7.7,9.1
		c-0.7,15.4-1.6,18.4,2.2,22.2c3.4,3.5,8.9,9.4,10.6,13.7c2.6,6.4,11.8,72.6,66,73.9c52.4,1.3,64.5-5.3,79.6-30.2
		c15.1-24.9,18-54.3,26.4-58.1C831.2,184.6,846,184.6,851.4,187.1z M1006.1,209.2c-5.3,36.7-21.9,50-31.4,53.8
		c-9.6,3.8-50.5,9.3-72.7-7.5c-22.1-16.8-29.2-51.8-29.4-71.2c-0.3-19.4,29.2-24.1,29.2-24.1c33.7-6.8,67.6-4.5,83,0.5
		C1000,165.7,1011.3,172.5,1006.1,209.2z M692.5,160.7c15.3-5,49.3-7.3,83-0.5c0,0,29.4,4.8,29.2,24.1c-0.3,19.4-7.3,54.3-29.4,71.2
		c-22.1,16.8-63.1,11.3-72.7,7.5c-9.6-3.8-26.2-17.1-31.4-53.8C665.8,172.5,677.2,165.7,692.5,160.7z"/>
	<rect x="648.2" y="165.9" class="st0" width="8.5" height="17"/>
	<rect x="1020" y="165.9" class="st0" width="8.5" height="17"/>
</g>
<path class="st0" d="M944.6,96v-6.4c-95,4.3-156.1,6.9-192.7,8.4c-70.8,2.9-108.1,4.2-140.1,29.1c-28.8,22.4-39.6,53.3-44.2,73.5
	H582c4.4-14.3,25.3-50.8,53.1-66.6c30.8-17.6,91.3-8.4,159.4-9.2c48.1-0.6,58.8,0.4,150.2-2.7V113h8.5V96H944.6z"/>
<g>
	<path class="st2" d="M895.2,101.1c1.1,0.4,1.6,4.2,3.7,7.3c2.1,3.1,3.7,3.8,10.3,3.4c6.9-0.5,7.7-9,8-9.8c0.2-0.6,0.9-1.3,1.3-1.8
		c0.5-0.5,0.3-0.9,0.1-2.8c-0.1-0.6-0.5-1-1-1.1c-7.8-1.3-12.9-1.5-19.9,0.8c-1.9,0.6-2.7,0.7-4.4,0.8c-1.6,0.1-2.5,0.1-4.4-0.3
		c-7.2-1.6-12.3-0.9-19.8,1.1c-0.5,0.1-0.9,0.6-0.9,1.2c0,2-0.1,2.4,0.4,2.8c0.5,0.4,1.2,1.1,1.4,1.7c0.4,0.8,2,9.2,8.9,9
		c6.7-0.2,8.2-1.1,10-4.3c1.8-3.3,2-7,3-7.6C892.6,101,894.4,100.9,895.2,101.1z M915,103c-0.4,4.7-2.5,6.5-3.7,7.1
		c-1.2,0.5-6.4,1.5-9.3-0.5c-2.9-2-4-6.4-4.2-8.9c-0.2-2.5,3.6-3.3,3.6-3.3c4.3-1.1,8.6-1,10.6-0.4C914,97.5,915.5,98.3,915,103z
		 M874.7,98.7c1.9-0.7,6.2-1.2,10.6-0.6c0,0,3.8,0.4,3.9,2.9c0.1,2.5-0.6,7-3.3,9.3c-2.7,2.3-8,1.8-9.2,1.4c-1.2-0.4-3.4-2-4.3-6.7
		C871.4,100.4,872.8,99.5,874.7,98.7z"/>
	<path class="st3" d="M879.7,104.1c0.6-0.1,2.1-0.2,2.5-0.3l0-0.9c-0.1-1.2-0.9-1.9-2.3-1.8c-1.2,0-2,0.6-2.1,1.5l-1.2,0.1
		c0.1-1.4,1.5-2.5,3.3-2.6c1.4-0.1,3.3,0.4,3.4,2.9l0.3,6.1l-1.1,0.1l-0.1-1.4l-0.1,0c-0.3,0.8-1.2,1.7-2.7,1.7
		c-1.6,0.1-3-0.8-3.1-2.6C876.4,105.1,877.9,104.4,879.7,104.1z M879.8,108.5c1.7-0.1,2.6-1.3,2.6-2.8l0-1c-0.5,0.1-1.9,0.2-2.3,0.3
		c-1.6,0.2-2.3,0.8-2.3,1.9C877.7,108,878.6,108.6,879.8,108.5z"/>
	<path class="st3" d="M891.8,108.6l1.1-0.1l0.1,1.9l0.1,0c0.3-1.3,1.2-2.1,2.4-2.2l0.6,0l0.1,1.6c-0.1,0-0.4-0.1-0.7-0.1
		c-1.4,0.1-2.4,1.4-2.3,3.2l0.4,7.8l-1.1,0.1L891.8,108.6z"/>
	<path class="st3" d="M908.6,100.9l-1.9,0.1l0.3,5.7c0,1.1,0.7,1.4,1.4,1.4c0.2,0,0.5,0,0.7-0.1l0.1,1.1c-0.2,0-0.5,0.1-0.8,0.1
		c-1.2,0.1-2.4-0.7-2.5-2.2l-0.3-5.9l-1.3,0.1l0-1l1.3-0.1l-0.1-2.2l1.2-0.1l0.1,2.2l1.9-0.1L908.6,100.9z"/>
</g>
<g>
	<path class="st0" d="M851.4,333.4c8.5,3.8,11.3,33.2,26.4,58.1c15.1,24.9,27.2,31.4,79.6,30.2c54.2-1.3,63.4-67.5,66-73.9
		c1.8-4.3,7.2-10.2,10.6-13.7c3.7-3.8,2.8-6.5,2.2-22.2c-0.2-4.4-3.4-8.2-7.7-9.1c-60.4-12.9-100.6-16.6-155.6-1.4
		c-15,4.2-21.4,4.4-34.3,4.3c-12.9,0.1-19.3-0.1-34.3-4.3c-55.5-15.4-96-11.3-155.6,1.4c-4.3,0.9-7.5,4.7-7.7,9.1
		c-0.7,15.4-1.6,18.4,2.2,22.2c3.4,3.5,8.9,9.4,10.6,13.7c2.6,6.4,11.8,72.6,66,73.9c52.4,1.3,64.5-5.3,79.6-30.2
		c15.1-24.9,18-54.3,26.4-58.1C831.2,331,846,331,851.4,333.4z M1006.1,355.6c-5.3,36.7-21.9,50-31.4,53.8
		c-9.6,3.8-50.5,9.3-72.7-7.5c-22.1-16.8-29.2-51.8-29.4-71.2c-0.3-19.4,29.2-24.1,29.2-24.1c33.7-6.8,67.6-4.5,83,0.5
		C1000,312.1,1011.3,318.9,1006.1,355.6z M692.5,307c15.3-5,49.3-7.3,83-0.5c0,0,29.4,4.8,29.2,24.1c-0.3,19.4-7.3,54.3-29.4,71.2
		c-22.1,16.8-63.1,11.3-72.7,7.5c-9.6-3.8-26.2-17.1-31.4-53.8C665.8,318.9,677.2,312.1,692.5,307z"/>
</g>
<path class="st0" d="M425.1,1015.3v-6.4c-95,4.3-156.1,6.9-192.7,8.4c-70.8,2.9-108.1,4.2-140.1,29.1
	c-28.8,22.4-39.6,53.3-44.2,73.5h14.3c4.4-14.3,25.3-50.8,53.1-66.6c30.8-17.6,91.3-8.4,159.4-9.2c48.1-0.6,58.8,0.4,150.2-2.7v-9.1
	h8.5v-17H425.1z"/>
<path class="st0" d="M536.7,1140.4c-0.2-4.4-3.4-8.2-7.7-9.1c-60.4-12.9-100.6-16.6-155.6-1.4c-15,4.2-21.4,4.4-34.3,4.3
	c-12.9,0.1-19.3-0.1-34.3-4.3c-55.5-15.4-96-11.3-155.6,1.4c-4.3,0.9-7.5,4.7-7.7,9.1c-0.7,15.4-1.6,18.4,2.2,22.2
	c3.4,3.5,8.9,9.4,10.6,13.7c2.6,6.4,11.8,72.6,66,73.9c52.4,1.3,64.5-5.3,79.6-30.2c15.1-24.9,18-54.3,26.4-58.1
	c5.4-2.5,20.2-2.5,25.6,0c8.5,3.8,11.3,33.2,26.4,58.1c15.1,24.9,27.2,31.4,79.6,30.2c54.2-1.3,63.4-67.5,66-73.9
	c1.8-4.3,7.2-10.2,10.6-13.7C538.3,1158.8,537.4,1156.1,536.7,1140.4z"/>
<rect x="147" y="1140.8" class="st0" width="8.5" height="17"/>
<rect x="520.8" y="1140.8" class="st0" width="8.5" height="17"/>
<path class="st0" d="M443.5,1070.9v-6.4c-95,4.3-156.1,6.9-192.7,8.4c-70.8,2.9-108.1,4.2-140.1,29.1
	c-28.8,22.4-39.6,53.3-44.2,73.5h14.3c4.4-14.3,25.3-50.8,53.1-66.6c30.8-17.6,91.3-8.4,159.4-9.2c48.1-0.6,58.8,0.4,150.2-2.7v-9.1
	h8.5v-17H443.5z"/>
<g>
	<path class="st2" d="M394,1076c1.1,0.4,1.6,4.2,3.7,7.3c2.1,3.1,3.7,3.8,10.3,3.4c6.9-0.5,7.7-9,8-9.8c0.2-0.6,0.9-1.3,1.3-1.8
		c0.5-0.5,0.3-0.9,0.1-2.8c-0.1-0.6-0.5-1-1-1.1c-7.8-1.3-12.9-1.5-19.9,0.8c-1.9,0.6-2.7,0.7-4.4,0.8c-1.6,0.1-2.5,0.1-4.4-0.3
		c-7.2-1.6-12.3-0.9-19.8,1.1c-0.5,0.1-0.9,0.6-0.9,1.2c0,2-0.1,2.4,0.4,2.8c0.5,0.4,1.2,1.1,1.4,1.7c0.4,0.8,2,9.2,8.9,9
		c6.7-0.2,8.2-1.1,10-4.3c1.8-3.3,2-7,3-7.6C391.4,1075.8,393.3,1075.7,394,1076z M413.9,1077.9c-0.4,4.7-2.5,6.5-3.7,7.1
		c-1.2,0.5-6.4,1.5-9.3-0.5c-2.9-2-4-6.4-4.2-8.9c-0.2-2.5,3.6-3.3,3.6-3.3c4.3-1.1,8.6-1,10.6-0.4
		C412.8,1072.4,414.3,1073.2,413.9,1077.9z M373.5,1073.6c1.9-0.7,6.2-1.2,10.6-0.6c0,0,3.8,0.4,3.9,2.9c0.1,2.5-0.6,7-3.3,9.3
		c-2.7,2.3-8,1.8-9.2,1.4c-1.2-0.4-3.4-2-4.3-6.7C370.2,1075.3,371.6,1074.4,373.5,1073.6z"/>
	<path class="st3" d="M378.6,1079c0.6-0.1,2.1-0.2,2.5-0.3l0-0.9c-0.1-1.2-0.9-1.9-2.3-1.8c-1.2,0-2,0.6-2.1,1.5l-1.2,0.1
		c0.1-1.4,1.5-2.5,3.3-2.6c1.4-0.1,3.3,0.4,3.4,2.9l0.3,6.1l-1.1,0.1l-0.1-1.4l-0.1,0c-0.3,0.8-1.2,1.7-2.7,1.7
		c-1.6,0.1-3-0.8-3.1-2.6C375.3,1080,376.7,1079.2,378.6,1079z M378.6,1083.4c1.7-0.1,2.6-1.3,2.6-2.8l0-1c-0.5,0.1-1.9,0.2-2.3,0.3
		c-1.6,0.2-2.3,0.8-2.3,1.9C376.6,1082.9,377.5,1083.5,378.6,1083.4z"/>
	<path class="st3" d="M390.6,1083.5l1.1-0.1l0.1,1.9l0.1,0c0.3-1.3,1.2-2.1,2.4-2.2l0.6,0l0.1,1.6c-0.1,0-0.4-0.1-0.7-0.1
		c-1.4,0.1-2.4,1.4-2.3,3.2l0.4,7.8l-1.1,0.1L390.6,1083.5z"/>
	<path class="st3" d="M407.4,1075.8l-1.9,0.1l0.3,5.7c0,1.1,0.7,1.4,1.4,1.4c0.2,0,0.5,0,0.7-0.1l0.1,1.1c-0.2,0-0.5,0.1-0.8,0.1
		c-1.2,0.1-2.4-0.7-2.5-2.2l-0.3-5.9l-1.3,0.1l0-1l1.3-0.1l-0.1-2.2l1.2-0.1l0.1,2.2l1.9-0.1L407.4,1075.8z"/>
</g>
<g>
	<rect x="187.6" y="1198" class="st0" width="91.9" height="9.5"/>
	<rect x="187.6" y="1180.4" class="st0" width="91.9" height="9.5"/>
	<rect x="187.6" y="1162.9" class="st0" width="91.9" height="9.5"/>
</g>
<g>
	<rect x="396.7" y="1198" class="st0" width="91.9" height="9.5"/>
	<rect x="396.7" y="1180.4" class="st0" width="91.9" height="9.5"/>
	<rect x="396.7" y="1162.9" class="st0" width="91.9" height="9.5"/>
</g>
<path class="st0" d="M1526.2,981.3v-6.4c-95,4.3-156.1,6.9-192.7,8.4c-70.8,2.9-108.1,4.2-140.1,29.1
	c-28.8,22.4-39.6,53.3-44.2,73.5h14.3c4.4-14.3,25.3-50.8,53.1-66.6c30.8-17.6,91.3-8.4,159.4-9.2c48.1-0.6,58.8,0.4,150.2-2.7v-9.1
	h8.5v-17H1526.2z"/>
<path class="st0" d="M1564.6,1020.8v-6.4c-95,4.3-156.1,6.9-192.7,8.4c-70.8,2.9-108.1,4.2-140.1,29.1
	c-28.8,22.4-39.6,53.3-44.2,73.5h14.3c4.4-14.3,25.3-50.8,53.1-66.6c30.8-17.6,91.3-8.4,159.4-9.2c48.1-0.6,58.8,0.4,150.2-2.7v-9.1
	h8.5v-17H1564.6z"/>
<g>
	<path class="st2" d="M1515.1,1026c1.1,0.4,1.6,4.2,3.7,7.3c2.1,3.1,3.7,3.8,10.3,3.4c6.9-0.5,7.7-9,8-9.8c0.2-0.6,0.9-1.3,1.3-1.8
		c0.5-0.5,0.3-0.9,0.1-2.8c-0.1-0.6-0.5-1-1-1.1c-7.8-1.3-12.9-1.5-19.9,0.8c-1.9,0.6-2.7,0.7-4.4,0.8c-1.6,0.1-2.5,0.1-4.4-0.3
		c-7.2-1.6-12.3-0.9-19.8,1.1c-0.5,0.1-0.9,0.6-0.9,1.2c0,2-0.1,2.4,0.4,2.8c0.5,0.4,1.2,1.1,1.4,1.7c0.4,0.8,2,9.2,8.9,9
		c6.7-0.2,8.2-1.1,10-4.3c1.8-3.3,2-7,3-7.6C1512.5,1025.8,1514.4,1025.7,1515.1,1026z M1535,1027.8c-0.4,4.7-2.5,6.5-3.7,7.1
		c-1.2,0.5-6.4,1.5-9.3-0.5c-2.9-2-4-6.4-4.2-8.9c-0.2-2.5,3.6-3.3,3.6-3.3c4.3-1.1,8.6-1,10.6-0.4
		C1534,1022.3,1535.4,1023.1,1535,1027.8z M1494.7,1023.6c1.9-0.7,6.2-1.2,10.6-0.6c0,0,3.8,0.4,3.9,2.9c0.1,2.5-0.6,7-3.3,9.3
		c-2.7,2.3-8,1.8-9.2,1.4c-1.2-0.4-3.4-2-4.3-6.7C1491.4,1025.2,1492.8,1024.3,1494.7,1023.6z"/>
	<path class="st3" d="M1499.7,1028.9c0.6-0.1,2.1-0.2,2.5-0.3l0-0.9c-0.1-1.2-0.9-1.9-2.3-1.8c-1.2,0-2,0.6-2.1,1.5l-1.2,0.1
		c0.1-1.4,1.5-2.5,3.3-2.6c1.4-0.1,3.3,0.4,3.4,2.9l0.3,6.1l-1.1,0.1l-0.1-1.4l-0.1,0c-0.3,0.8-1.2,1.7-2.7,1.7
		c-1.6,0.1-3-0.8-3.1-2.6C1496.4,1029.9,1497.9,1029.2,1499.7,1028.9z M1499.7,1033.3c1.7-0.1,2.6-1.3,2.6-2.8l0-1
		c-0.5,0.1-1.9,0.2-2.3,0.3c-1.6,0.2-2.3,0.8-2.3,1.9C1497.7,1032.8,1498.6,1033.4,1499.7,1033.3z"/>
	<path class="st3" d="M1511.7,1033.4l1.1-0.1l0.1,1.9l0.1,0c0.3-1.3,1.2-2.1,2.4-2.2l0.6,0l0.1,1.6c-0.1,0-0.4-0.1-0.7-0.1
		c-1.4,0.1-2.4,1.4-2.3,3.2l0.4,7.8l-1.1,0.1L1511.7,1033.4z"/>
	<path class="st3" d="M1528.5,1025.7l-1.9,0.1l0.3,5.7c0,1.1,0.7,1.4,1.4,1.4c0.2,0,0.5,0,0.7-0.1l0.1,1.1c-0.2,0-0.5,0.1-0.8,0.1
		c-1.2,0.1-2.4-0.7-2.5-2.2l-0.3-5.9l-1.3,0.1l0-1l1.3-0.1l-0.1-2.2l1.2-0.1l0.1,2.2l1.9-0.1L1528.5,1025.7z"/>
</g>
<path class="st0" d="M988,453.3l-6.3-1.3c-15.6,93.8-25.8,154.1-32,190.3c-11.9,69.9-18.4,106.6-0.8,143.1
	c15.9,32.9,43.9,49.9,62.7,58.5l3-14c-13.1-7.3-44.4-35.4-54.1-65.8c-10.8-33.8,10.8-91,24.3-157.8c9.5-47.2,12.6-57.4,28.7-147.4
	l-8.9-1.9l1.8-8.3l-16.6-3.6L988,453.3z"/>
<path class="st0" d="M1046.1,446.9l-6.3-1.3c-15.6,93.8-25.8,154.1-32,190.3c-11.9,69.9-18.4,106.6-0.8,143.1
	c15.9,32.9,43.9,49.9,62.7,58.5l3-14c-13.1-7.3-44.4-35.4-54.1-65.8c-10.8-33.8,10.8-91,24.3-157.8c9.5-47.2,12.6-57.4,28.7-147.4
	l-8.9-1.9l1.8-8.3l-16.6-3.6L1046.1,446.9z"/>
<g>
	<path class="st2" d="M1040.8,496.4c0.7-1,4.4-0.7,7.9-2.1c3.4-1.4,4.5-2.8,5.4-9.4c1-6.9-7.2-9.4-8-9.8c-0.5-0.3-1.1-1.1-1.5-1.6
		c-0.4-0.5-0.8-0.5-2.8-0.7c-0.6-0.1-1.1,0.3-1.3,0.8c-2.9,7.4-4.2,12.3-3.4,19.6c0.2,2,0.1,2.8-0.2,4.4c-0.3,1.6-0.4,2.4-1.2,4.2
		c-3.1,6.7-3.4,11.9-3,19.6c0,0.6,0.4,1,1,1.2c1.9,0.4,2.3,0.6,2.8,0.2c0.5-0.4,1.4-0.9,1.9-1.1c0.9-0.2,9.4,0,10.7-6.8
		c1.2-6.6,0.7-8.2-2.2-10.7c-2.8-2.4-6.5-3.4-6.8-4.5C1040.1,498.9,1040.4,497,1040.8,496.4z M1046.8,477.3c4.5,1.4,5.9,3.8,6.1,5.1
		c0.3,1.3,0.1,6.6-2.4,9c-2.6,2.4-7.1,2.6-9.6,2.2c-2.4-0.4-2.4-4.2-2.4-4.2c-0.2-4.4,0.8-8.6,1.8-10.5
		C1041.2,477.2,1042.3,475.9,1046.8,477.3z M1034.2,515.9c-0.3-2,0.1-6.4,1.6-10.5c0,0,1.2-3.6,3.6-3.2c2.4,0.4,6.7,2,8.4,5.2
		c1.7,3.1,0.1,8.2-0.5,9.3c-0.7,1.1-2.7,2.9-7.4,2.9C1035.2,519.5,1034.6,517.9,1034.2,515.9z"/>
	<path class="st3" d="M1040.5,512.1c0.1-0.6,0.2-2.1,0.3-2.5l-0.8-0.1c-1.2-0.2-2.1,0.5-2.3,1.8c-0.2,1.2,0.2,2.1,1,2.4l-0.2,1.2
		c-1.4-0.4-2.1-2-1.8-3.8c0.2-1.3,1.1-3.1,3.6-2.7l6,1l-0.2,1.1l-1.4-0.2l0,0.1c0.7,0.5,1.4,1.5,1.1,3c-0.3,1.6-1.5,2.8-3.2,2.5
		C1040.8,515.5,1040.4,513.9,1040.5,512.1z M1044.9,513c0.3-1.6-0.7-2.9-2.2-3.1l-1-0.2c0,0.5-0.2,1.9-0.2,2.4
		c-0.2,1.6,0.3,2.4,1.3,2.6C1043.9,514.9,1044.7,514.1,1044.9,513z"/>
	<path class="st3" d="M1047.4,501.2l0.2-1.1l1.9,0.3l0-0.1c-1.2-0.6-1.8-1.7-1.6-2.8l0.1-0.6l1.5,0.3c0,0.1-0.2,0.4-0.2,0.6
		c-0.2,1.4,0.9,2.6,2.6,2.9l7.7,1.3l-0.2,1.1L1047.4,501.2z"/>
	<path class="st3" d="M1043.4,483.2l-0.3,1.9l5.6,0.9c1.1,0.2,1.5-0.4,1.7-1.1c0-0.2,0.1-0.5,0.1-0.7l1,0.2c0,0.2,0,0.5-0.1,0.9
		c-0.2,1.2-1.1,2.2-2.6,2l-5.9-1l-0.2,1.3l-0.9-0.2l0.2-1.3l-2.2-0.4l0.2-1.1l2.2,0.4l0.3-1.9L1043.4,483.2z"/>
</g>
<g>
	<path class="st0" d="M904.5,1057.1c3.8-8.5,33.2-11.3,58.1-26.4c24.9-15.1,31.4-27.2,30.2-79.6c-1.3-54.2-67.5-63.4-73.9-66
		c-4.3-1.8-10.2-7.2-13.7-10.6c-3.8-3.7-6.5-2.8-22.2-2.2c-4.4,0.2-8.2,3.4-9.1,7.7c-12.9,60.4-16.6,100.6-1.4,155.6
		c4.2,15,4.4,21.4,4.3,34.3c0.1,12.9-0.1,19.3-4.3,34.3c-15.4,55.5-11.3,96,1.4,155.6c0.9,4.3,4.7,7.5,9.1,7.7
		c15.4,0.7,18.4,1.6,22.2-2.2c3.5-3.4,9.4-8.9,13.7-10.6c6.4-2.6,72.6-11.8,73.9-66c1.3-52.4-5.3-64.5-30.2-79.6
		c-24.9-15.1-54.3-18-58.1-26.4C902.1,1077.3,902.1,1062.5,904.5,1057.1z M926.7,902.4c36.7,5.3,50,21.9,53.8,31.4
		c3.8,9.6,9.3,50.5-7.5,72.7c-16.8,22.1-51.8,29.2-71.2,29.4c-19.4,0.3-24.1-29.2-24.1-29.2c-6.8-33.7-4.5-67.6,0.5-83
		C883.2,908.5,889.9,897.2,926.7,902.4z M878.1,1216c-5-15.3-7.3-49.3-0.5-83c0,0,4.8-29.4,24.1-29.2c19.4,0.3,54.3,7.3,71.2,29.4
		c16.8,22.1,11.3,63.1,7.5,72.7c-3.8,9.6-17.1,26.2-53.8,31.4C889.9,1242.7,883.2,1231.3,878.1,1216z"/>
	
		<rect x="887.6" y="1247.5" transform="matrix(6.123234e-17 -1 1 6.123234e-17 -364.1492 2147.8894)" class="st0" width="8.5" height="17"/>
	
		<rect x="887.6" y="873.8" transform="matrix(6.123234e-17 -1 1 6.123234e-17 9.5989 1774.1414)" class="st0" width="8.5" height="17"/>
</g>
<g>
	<path class="st0" d="M1047.9,1128c3.8-8.5,33.2-11.3,58.1-26.4c24.9-15.1,31.4-27.2,30.2-79.6c-1.3-54.2-67.5-63.4-73.9-66
		c-4.3-1.8-10.2-7.2-13.7-10.6c-3.8-3.7-6.5-2.8-22.2-2.2c-4.4,0.2-8.2,3.4-9.1,7.7c-12.9,60.4-16.6,100.6-1.4,155.6
		c4.2,15,4.4,21.4,4.3,34.3c0.1,12.9-0.1,19.3-4.3,34.3c-15.4,55.5-11.3,96,1.4,155.6c0.9,4.3,4.7,7.5,9.1,7.7
		c15.4,0.7,18.4,1.6,22.2-2.2c3.5-3.4,9.4-8.9,13.7-10.6c6.4-2.6,72.6-11.8,73.9-66c1.3-52.4-5.3-64.5-30.2-79.6
		c-24.9-15.1-54.3-18-58.1-26.4C1045.4,1148.2,1045.4,1133.4,1047.9,1128z M1070,973.3c36.7,5.3,50,21.9,53.8,31.4
		c3.8,9.6,9.3,50.5-7.5,72.7c-16.8,22.1-51.8,29.2-71.2,29.4c-19.4,0.3-24.1-29.2-24.1-29.2c-6.8-33.7-4.5-67.6,0.5-83
		C1026.5,979.4,1033.3,968.1,1070,973.3z M1021.4,1286.9c-5-15.3-7.3-49.3-0.5-83c0,0,4.8-29.4,24.1-29.2
		c19.4,0.3,54.3,7.3,71.2,29.4c16.8,22.1,11.3,63.1,7.5,72.7c-3.8,9.6-17.1,26.2-53.8,31.4S1026.5,1302.2,1021.4,1286.9z"/>
</g>
<path class="st0" d="M1619,1106.3c-0.2-4.4-3.4-8.2-7.7-9.1c-60.4-12.9-100.6-16.6-155.6-1.4c-15,4.2-21.4,4.4-34.3,4.3
	c-12.9,0.1-19.3-0.1-34.3-4.3c-55.5-15.4-96-11.3-155.6,1.4c-4.3,0.9-7.5,4.7-7.7,9.1c-0.7,15.4-1.6,18.4,2.2,22.2
	c3.4,3.5,8.9,9.4,10.6,13.7c2.6,6.4,11.8,72.6,66,73.9c52.4,1.3,64.5-5.3,79.6-30.2c15.1-24.9,18-54.3,26.4-58.1
	c5.4-2.5,20.2-2.5,25.6,0c8.5,3.8,11.3,33.2,26.4,58.1c15.1,24.9,27.2,31.4,79.6,30.2c54.2-1.3,63.4-67.5,66-73.9
	c1.8-4.3,7.2-10.2,10.6-13.7C1620.5,1124.7,1619.6,1122,1619,1106.3z"/>
<rect x="1229.3" y="1106.7" class="st0" width="8.5" height="17"/>
<rect x="1603" y="1106.7" class="st0" width="8.5" height="17"/>
<g>
	<path class="st0" d="M1734.9,238.2c-3.8,8.5-33.2,11.3-58.1,26.4c-24.9,15.1-31.4,27.2-30.2,79.6c1.3,54.2,67.5,63.4,73.9,66
		c4.3,1.8,10.2,7.2,13.7,10.6c3.8,3.7,6.5,2.8,22.2,2.2c4.4-0.2,8.2-3.4,9.1-7.7c12.9-60.4,16.6-100.6,1.4-155.6
		c-4.2-15-4.4-21.4-4.3-34.3c-0.1-12.9,0.1-19.3,4.3-34.3c15.4-55.5,11.3-96-1.4-155.6c-0.9-4.3-4.7-7.5-9.1-7.7
		c-15.4-0.7-18.4-1.6-22.2,2.2c-3.5,3.4-9.4,8.9-13.7,10.6c-6.4,2.6-72.6,11.8-73.9,66c-1.3,52.4,5.3,64.5,30.2,79.6
		c24.9,15.1,54.3,18,58.1,26.4C1737.4,218,1737.4,232.8,1734.9,238.2z M1712.8,392.9c-36.7-5.3-50-21.9-53.8-31.4
		c-3.8-9.6-9.3-50.5,7.5-72.7c16.8-22.1,51.8-29.2,71.2-29.4c19.4-0.3,24.1,29.2,24.1,29.2c6.8,33.7,4.5,67.6-0.5,83
		C1756.3,386.9,1749.5,398.2,1712.8,392.9z M1761.3,79.3c5,15.3,7.3,49.3,0.5,83c0,0-4.8,29.4-24.1,29.2
		c-19.4-0.3-54.3-7.3-71.2-29.4c-16.8-22.1-11.3-63.1-7.5-72.7c3.8-9.6,17.1-26.2,53.8-31.4C1749.5,52.7,1756.3,64,1761.3,79.3z"/>
</g>
<g>
	<path class="st0" d="M1873,238.2c-3.8,8.5-33.2,11.3-58.1,26.4c-24.9,15.1-31.4,27.2-30.2,79.6c1.3,54.2,67.5,63.4,73.9,66
		c4.3,1.8,10.2,7.2,13.7,10.6c3.8,3.7,6.5,2.8,22.2,2.2c4.4-0.2,8.2-3.4,9.1-7.7c12.9-60.4,16.6-100.6,1.4-155.6
		c-4.2-15-4.4-21.4-4.3-34.3c-0.1-12.9,0.1-19.3,4.3-34.3c15.4-55.5,11.3-96-1.4-155.6c-0.9-4.3-4.7-7.5-9.1-7.7
		c-15.4-0.7-18.4-1.6-22.2,2.2c-3.5,3.4-9.4,8.9-13.7,10.6c-6.4,2.6-72.6,11.8-73.9,66c-1.3,52.4,5.3,64.5,30.2,79.6
		c24.9,15.1,54.3,18,58.1,26.4C1875.4,218,1875.4,232.8,1873,238.2z M1850.8,392.9c-36.7-5.3-50-21.9-53.8-31.4
		c-3.8-9.6-9.3-50.5,7.5-72.7c16.8-22.1,51.8-29.2,71.2-29.4c19.4-0.3,24.1,29.2,24.1,29.2c6.8,33.7,4.5,67.6-0.5,83
		C1894.3,386.9,1887.6,398.2,1850.8,392.9z M1899.4,79.3c5,15.3,7.3,49.3,0.5,83c0,0-4.8,29.4-24.1,29.2
		c-19.4-0.3-54.3-7.3-71.2-29.4c-16.8-22.1-11.3-63.1-7.5-72.7c3.8-9.6,17.1-26.2,53.8-31.4S1894.3,64,1899.4,79.3z"/>
</g>
<g>
	<path class="st0" d="M1733.8,645.5c-3.8,8.5-33.2,11.3-58.1,26.4c-24.9,15.1-31.4,27.2-30.2,79.6c1.3,54.2,67.5,63.4,73.9,66
		c4.3,1.8,10.2,7.2,13.7,10.6c3.8,3.7,6.5,2.8,22.2,2.2c4.4-0.2,8.2-3.4,9.1-7.7c12.9-60.4,16.6-100.6,1.4-155.6
		c-4.2-15-4.4-21.4-4.3-34.3c-0.1-12.9,0.1-19.3,4.3-34.3c15.4-55.5,11.3-96-1.4-155.6c-0.9-4.3-4.7-7.5-9.1-7.7
		c-15.4-0.7-18.4-1.6-22.2,2.2c-3.5,3.4-9.4,8.9-13.7,10.6c-6.4,2.6-72.6,11.8-73.9,66c-1.3,52.4,5.3,64.5,30.2,79.6
		c24.9,15.1,54.3,18,58.1,26.4C1736.2,625.3,1736.2,640.1,1733.8,645.5z M1711.6,800.1c-36.7-5.3-50-21.9-53.8-31.4
		c-3.8-9.6-9.3-50.5,7.5-72.7c16.8-22.1,51.8-29.2,71.2-29.4c19.4-0.3,24.1,29.2,24.1,29.2c6.8,33.7,4.5,67.6-0.5,83
		C1755.1,794.1,1748.3,805.4,1711.6,800.1z M1760.2,486.6c5,15.3,7.3,49.3,0.5,83c0,0-4.8,29.4-24.1,29.2
		c-19.4-0.3-54.3-7.3-71.2-29.4c-16.8-22.1-11.3-63.1-7.5-72.7c3.8-9.6,17.1-26.2,53.8-31.4C1748.3,459.9,1755.1,471.2,1760.2,486.6
		z"/>
</g>
<g>
	<path class="st0" d="M1873,650.8c-3.8,8.5-33.2,11.3-58.1,26.4c-24.9,15.1-31.4,27.2-30.2,79.6c1.3,54.2,67.5,63.4,73.9,66
		c4.3,1.8,10.2,7.2,13.7,10.6c3.8,3.7,6.5,2.8,22.2,2.2c4.4-0.2,8.2-3.4,9.1-7.7c12.9-60.4,16.6-100.6,1.4-155.6
		c-4.2-15-4.4-21.4-4.3-34.3c-0.1-12.9,0.1-19.3,4.3-34.3c15.4-55.5,11.3-96-1.4-155.6c-0.9-4.3-4.7-7.5-9.1-7.7
		c-15.4-0.7-18.4-1.6-22.2,2.2c-3.5,3.4-9.4,8.9-13.7,10.6c-6.4,2.6-72.6,11.8-73.9,66c-1.3,52.4,5.3,64.5,30.2,79.6
		c24.9,15.1,54.3,18,58.1,26.4C1875.4,630.6,1875.4,645.4,1873,650.8z M1850.8,805.5c-36.7-5.3-50-21.9-53.8-31.4
		c-3.8-9.6-9.3-50.5,7.5-72.7c16.8-22.1,51.8-29.2,71.2-29.4c19.4-0.3,24.1,29.2,24.1,29.2c6.8,33.7,4.5,67.6-0.5,83
		C1894.3,799.5,1887.6,810.8,1850.8,805.5z M1899.4,491.9c5,15.3,7.3,49.3,0.5,83c0,0-4.8,29.4-24.1,29.2
		c-19.4-0.3-54.3-7.3-71.2-29.4c-16.8-22.1-11.3-63.1-7.5-72.7c3.8-9.6,17.1-26.2,53.8-31.4S1894.3,476.6,1899.4,491.9z"/>
</g>
<g>
	<path class="st0" d="M1682,1007.3c3.8-8.5,33.2-11.3,58.1-26.4c24.9-15.1,31.4-27.2,30.2-79.6c-1.3-54.2-67.5-63.4-73.9-66
		c-4.3-1.8-10.2-7.2-13.7-10.6c-3.8-3.7-6.5-2.8-22.2-2.2c-4.4,0.2-8.2,3.4-9.1,7.7c-12.9,60.4-16.6,100.6-1.4,155.6
		c4.2,15,4.4,21.4,4.3,34.3c0.1,12.9-0.1,19.3-4.3,34.3c-15.4,55.5-11.3,96,1.4,155.6c0.9,4.3,4.7,7.5,9.1,7.7
		c15.4,0.7,18.4,1.6,22.2-2.2c3.5-3.4,9.4-8.9,13.7-10.6c6.4-2.6,72.6-11.8,73.9-66c1.3-52.4-5.3-64.5-30.2-79.6
		c-24.9-15.1-54.3-18-58.1-26.4C1679.6,1027.5,1679.6,1012.8,1682,1007.3z M1704.2,852.7c36.7,5.3,50,21.9,53.8,31.4
		c3.8,9.6,9.3,50.5-7.5,72.7c-16.8,22.1-51.8,29.2-71.2,29.4c-19.4,0.3-24.1-29.2-24.1-29.2c-6.8-33.7-4.5-67.6,0.5-83
		C1660.7,858.7,1667.5,847.4,1704.2,852.7z M1655.6,1166.2c-5-15.3-7.3-49.3-0.5-83c0,0,4.8-29.4,24.1-29.2
		c19.4,0.3,54.3,7.3,71.2,29.4c16.8,22.1,11.3,63.1,7.5,72.7c-3.8,9.6-17.1,26.2-53.8,31.4
		C1667.5,1192.9,1660.7,1181.6,1655.6,1166.2z"/>
	
		<rect x="1665.1" y="1197.8" transform="matrix(6.123234e-17 -1 1 6.123234e-17 463.1085 2875.6499)" class="st0" width="8.5" height="17"/>
	
		<rect x="1665.1" y="824" transform="matrix(6.123234e-17 -1 1 6.123234e-17 836.8565 2501.9019)" class="st0" width="8.5" height="17"/>
</g>
<g>
	<path class="st0" d="M1825.4,1025.2c3.8-8.5,33.2-11.3,58.1-26.4c24.9-15.1,31.4-27.2,30.2-79.6c-1.3-54.2-67.5-63.4-73.9-66
		c-4.3-1.8-10.2-7.2-13.7-10.6c-3.8-3.7-6.5-2.8-22.2-2.2c-4.4,0.2-8.2,3.4-9.1,7.7c-12.9,60.4-16.6,100.6-1.4,155.6
		c4.2,15,4.4,21.4,4.3,34.3c0.1,12.9-0.1,19.3-4.3,34.3c-15.4,55.5-11.3,96,1.4,155.6c0.9,4.3,4.7,7.5,9.1,7.7
		c15.4,0.7,18.4,1.6,22.2-2.2c3.5-3.4,9.4-8.9,13.7-10.6c6.4-2.6,72.6-11.8,73.9-66c1.3-52.4-5.3-64.5-30.2-79.6
		c-24.9-15.1-54.3-18-58.1-26.4C1822.9,1045.4,1822.9,1030.6,1825.4,1025.2z M1847.5,870.6c36.7,5.3,50,21.9,53.8,31.4
		c3.8,9.6,9.3,50.5-7.5,72.7c-16.8,22.1-51.8,29.2-71.2,29.4c-19.4,0.3-24.1-29.2-24.1-29.2c-6.8-33.7-4.5-67.6,0.5-83
		C1804,876.6,1810.8,865.3,1847.5,870.6z M1799,1184.1c-5-15.3-7.3-49.3-0.5-83c0,0,4.8-29.4,24.1-29.2c19.4,0.3,54.3,7.3,71.2,29.4
		c16.8,22.1,11.3,63.1,7.5,72.7c-3.8,9.6-17.1,26.2-53.8,31.4C1810.8,1210.8,1804,1199.5,1799,1184.1z"/>
</g>
<path class="st0" d="M1290,1337v6.4c95-4.3,156.1-6.9,192.7-8.4c70.8-2.9,108.1-4.2,140.1-29.1c28.8-22.4,39.6-53.3,44.2-73.5h-14.3
	c-4.4,14.3-25.3,50.8-53.1,66.6c-30.8,17.6-91.3,8.4-159.4,9.2c-48.1,0.6-58.8-0.4-150.2,2.7v9.1h-8.5v17H1290z"/>
<path class="st0" d="M1251.6,1297.4v6.4c95-4.3,156.1-6.9,192.7-8.4c70.8-2.9,108.1-4.2,140.1-29.1c28.8-22.4,39.6-53.3,44.2-73.5
	h-14.3c-4.4,14.3-25.3,50.8-53.1,66.6c-30.8,17.6-91.3,8.4-159.4,9.2c-48.1,0.6-58.8-0.4-150.2,2.7v9.1h-8.5v17H1251.6z"/>
<g>
	<path class="st2" d="M1301.1,1292.3c-1.1-0.4-1.6-4.2-3.7-7.3s-3.7-3.8-10.3-3.4c-6.9,0.5-7.7,9-8,9.8c-0.2,0.6-0.9,1.3-1.3,1.8
		c-0.5,0.5-0.3,0.9-0.1,2.8c0.1,0.6,0.5,1,1,1.1c7.8,1.3,12.9,1.5,19.9-0.8c1.9-0.6,2.7-0.7,4.4-0.8c1.6-0.1,2.5-0.1,4.4,0.3
		c7.2,1.6,12.3,0.9,19.8-1.1c0.5-0.1,0.9-0.6,0.9-1.2c0-2,0.1-2.4-0.4-2.8c-0.5-0.4-1.2-1.1-1.4-1.7c-0.4-0.8-2-9.2-8.9-9
		c-6.7,0.2-8.2,1.1-10,4.3c-1.8,3.3-2,7-3,7.6C1303.7,1292.5,1301.8,1292.6,1301.1,1292.3z M1281.2,1290.4c0.4-4.7,2.5-6.5,3.7-7.1
		c1.2-0.5,6.4-1.5,9.3,0.5c2.9,2,4,6.4,4.2,8.9c0.2,2.5-3.6,3.3-3.6,3.3c-4.3,1.1-8.6,1-10.6,0.4
		C1282.2,1295.9,1280.8,1295.1,1281.2,1290.4z M1321.5,1294.7c-1.9,0.7-6.2,1.2-10.6,0.6c0,0-3.8-0.4-3.9-2.9
		c-0.1-2.5,0.6-7,3.3-9.3c2.7-2.3,8-1.8,9.2-1.4c1.2,0.4,3.4,2,4.3,6.7C1324.8,1293,1323.4,1293.9,1321.5,1294.7z"/>
	<path class="st3" d="M1316.5,1289.3c-0.6,0.1-2.1,0.2-2.5,0.3l0,0.9c0.1,1.2,0.9,1.9,2.3,1.8c1.2,0,2-0.6,2.1-1.5l1.2-0.1
		c-0.1,1.4-1.5,2.5-3.3,2.6c-1.4,0.1-3.3-0.4-3.4-2.9l-0.3-6.1l1.1-0.1l0.1,1.4l0.1,0c0.3-0.8,1.2-1.7,2.7-1.7
		c1.6-0.1,3,0.8,3.1,2.6C1319.8,1288.3,1318.3,1289.1,1316.5,1289.3z M1316.5,1284.9c-1.7,0.1-2.6,1.3-2.6,2.8l0,1
		c0.5-0.1,1.9-0.2,2.3-0.3c1.6-0.2,2.3-0.8,2.3-1.9C1318.5,1285.4,1317.6,1284.8,1316.5,1284.9z"/>
	<path class="st3" d="M1304.5,1284.9l-1.1,0.1l-0.1-1.9l-0.1,0c-0.3,1.3-1.2,2.1-2.4,2.2l-0.6,0l-0.1-1.6c0.1,0,0.4,0.1,0.7,0.1
		c1.4-0.1,2.4-1.4,2.3-3.2l-0.4-7.8l1.1-0.1L1304.5,1284.9z"/>
	<path class="st3" d="M1287.7,1292.5l1.9-0.1l-0.3-5.7c0-1.1-0.7-1.4-1.4-1.4c-0.2,0-0.5,0-0.7,0.1l-0.1-1.1c0.2,0,0.5-0.1,0.8-0.1
		c1.2-0.1,2.4,0.7,2.5,2.2l0.3,5.9l1.3-0.1l0,1l-1.3,0.1l0.1,2.2l-1.2,0.1l-0.1-2.2l-1.9,0.1L1287.7,1292.5z"/>
</g>
</svg>
